VIDEO INFO:

Format                           : Matroska
File size                        : 4.37 GiB
Duration                         : 1h 52mn
Overall bit rate                 : 5 555 Kbps
Encoded date                     : UTC 2011-07-17 06:51:05
Writing application              : mkvmerge v4.9.1 ('Ich will') gemaakt op Jul 11 2011 23:53:15
Writing library                  : libebml v1.2.1 + libmatroska v1.1.1

Video
ID                               : 1
Format                           : AVC
Format/Info                      : Advanced Video Codec
Format profile                   : High@L5.1
Format settings, CABAC           : Yes
Format settings, ReFrames        : 5 frames
Muxing mode                      : Header stripping
Codec ID                         : V_MPEG4/ISO/AVC
Duration                         : 1h 52mn
Bit rate                         : 5 060 Kbps
Width                            : 1 280 pixels
Height                           : 720 pixels
Display aspect ratio             : 16:9
Frame rate                       : 23.976 fps
Color space                      : YUV
Chroma subsampling               : 4:2:0
Bit depth                        : 8 bits
Scan type                        : Progressive
Bits/(Pixel*Frame)               : 0.229
Stream size                      : 3.98 GiB (91%)
Title                            : x264 @ 5170kbps
Language                         : English

Audio
ID                               : 2
Format                           : AC-3
Format/Info                      : Audio Coding 3
Mode extension                   : CM (complete main)
Muxing mode                      : Header stripping
Codec ID                         : A_AC3
Duration                         : 1h 52mn
Bit rate mode                    : Constant
Bit rate                         : 384 Kbps
Channel(s)                       : 6 channels
Channel positions                : Front: L C R, Side: L R, LFE
Sampling rate                    : 48.0 KHz
Bit depth                        : 16 bits
Compression mode                 : Lossy
Stream size                      : 309 MiB (7%)
Title                            : AC3 5.1 @ 384kbps
Language                         : English

Text
ID                               : 3
Format                           : UTF-8
Codec ID                         : S_TEXT/UTF8
Codec ID/Info                    : UTF-8 Plain Text
Language                         : Dutch

----------------

Verenigde Staten
Drama / Thriller
114 minuten

geregisseerd door John Badham
met Matthew Broderick, Dabney Coleman en Ally Sheedy

Een student breekt, zonder het zelf te weten, in in de centrale computer van het Amerikaanse leger. Daar denkt hij spelletjes te spelen tegen de computer. Maar deze spelletjes zouden weleens het begin kunnen zijn van de Derde Wereldoorlog.

- Ondertiteling (nederlands) in de film met de mogelijkheid deze aan of uit te zetten.
- Gedurende de gehele film is het logo van Canal+ rechtsboven (niet hinderlijk) in de hoek doorzichtig te zien.